# AST/ASF file generated using VICON BodyLanguage
# -----------------------------------------------
:version 1.10
:name VICON
:units
  mass 1.0
  length 0.45
  angle deg
:documentation
   .ast/.asf automatically generated from VICON data using
   VICON BodyBuilder and BodyLanguage model FoxedUp or BRILLIANT.MOD
:root
   order TX TY TZ RX RY RZ
   axis XYZ
   position 0 0 0  
   orientation 0 0 0 
:bonedata
  begin
     id 1 
     name lhipjoint
     direction 0.558404 -0.748506 0.357664 
     length 2.4234 
     axis 0 0 0  XYZ
  end
  begin
     id 2 
     name lfemur
     direction 0.34202 -0.939693 0  
     length 7.14567  
     axis 0 0 20  XYZ
    dof rx ry rz
    limits (-160.0 20.0)
           (-70.0 70.0)
           (-60.0 70.0)
  end
  begin
     id 3 
     name ltibia
     direction 0.34202 -0.939693 0   
     length 8.13956   
     axis 0 0 20   XYZ
    dof rx
    limits (-10.0 170.0)
  end
  begin
     id 4 
     name lfoot
     direction 0.0791314 -0.217412 0.972867   
     length 2.00134   
     axis -90 7.62852e-016 20   XYZ
    dof rx rz
    limits (-45.0 90.0)
           (-70.0 20.0)
  end
  begin
     id 5 
     name ltoes
     direction 1.53547e-011 -4.21922e-011 1   
     length 1.00735   
     axis -90 7.62852e-016 20   XYZ
    dof rx
    limits (-90.0 20.0)
  end
  begin
     id 6 
     name rhipjoint
     direction -0.496392 -0.78327 0.374276   
     length 2.31584  
     axis 0 0 0  XYZ 
  end
  begin
     id 7 
     name rfemur
     direction -0.34202 -0.939693 0   
     length 7.47417   
     axis 0 0 -20   XYZ
    dof rx ry rz
    limits (-160.0 20.0)
           (-70.0 70.0)
           (-70.0 60.0)
  end
  begin
     id 8 
     name rtibia
     direction -0.34202 -0.939693 0   
     length 7.69071   
     axis 0 0 -20   XYZ
    dof rx
    limits (-10.0 170.0)
 end
 begin
     id 9 
     name rfoot
     direction -0.103069 -0.28318 0.953512   
     length 2.16135  
     axis -90 -7.62852e-016 -20   XYZ
    dof rx rz
    limits (-45.0 90.0)
           (-20.0 70.0)
  end
  begin
     id 10 
     name rtoes
     direction -1.53581e-011 -4.21904e-011 1   
     length 1.07867   
     axis -90 -7.62852e-016 -20   XYZ
    dof rx
    limits (-90.0 20.0)
  end
  begin
     id 11 
     name lowerback
     direction -0.0258961 0.994776 -0.0987407   
     length 2.19412   
     axis 0 0 0   XYZ
    dof rx ry rz
    limits (-20.0 45.0)
           (-30.0 30.0)
           (-30.0 30.0)
  end
  begin
     id 12 
     name upperback
     direction 0.0402454 0.999185 0.00320666   
     length 2.18445   
     axis 0 0 0   XYZ
    dof rx ry rz
    limits (-20.0 45.0)
           (-30.0 30.0)
           (-30.0 30.0)
  end
  begin
     id 13 
     name thorax
     direction 0.0519376 0.997415 0.0496558   
     length 2.21487   
     axis 0 0 0   XYZ
    dof rx ry rz
    limits (-20.0 45.0)
           (-30.0 30.0)
           (-30.0 30.0)
  end
  begin
     id 14 
     name lowerneck
     direction -0.0921276 0.983211 0.157506   
     length 1.61201   
     axis 0 0 0   XYZ
    dof rx ry rz
    limits (-20.0 45.0)
           (-30.0 30.0)
           (-30.0 30.0)
  end
  begin
     id 15 
     name upperneck
     direction 0.0820814 0.98162 -0.172292   
     length 1.65275   
     axis 0 0 0   XYZ
    dof rx ry rz
    limits (-20.0 45.0)
           (-30.0 30.0)
           (-30.0 30.0)
  end
  begin
     id 16
     name head
     direction 0.0336554 0.996413 -0.0776455  
     length 1.66415  
     axis 0 0 0   XYZ
    dof rx ry rz
    limits (-20.0 45.0)
           (-30.0 30.0)
           (-30.0 30.0)
  end
  begin
     id 17 
     name lclavicle
     direction 0.94696 0.284418 -0.149576  
     length 3.41447  
     axis 0 0 0   XYZ
    dof ry rz
    limits (-20.0 10.0)
           (0.0 20.0)
  end
  begin
     id 18 
     name lhumerus
     direction 1 -0.000130264 -9.81312e-005   
     length 5.19964   
     axis 180 -30 -90   XYZ
    dof rx ry rz
    limits (-60.0 90.0)
           (-90.0 90.0)
           (-90.0 90.0)
  end
  begin
     id 19
     name lradius
     direction 1 -4.48961e-011 1.43854e-026   
     length 3.32189   
     axis 180 -30 -90   XYZ
    dof rx
    limits (-10.0 170.0)
  end
  begin
     id 20
     name lwrist
     direction 1 -4.48958e-011 3.1502e-026   
     length 1.66095   
     axis -1.97692e-014 90 90   XYZ
    dof ry
    limits (-180.0 0.0)
 end
  begin
     id 21 
     name lhand
     direction 1 -4.48927e-011 6.3004e-026   
     length 0.645616   
     axis -4.02019e-014 90 90   XYZ
    dof rx rz
    limits (-90.0 90.0)
           (-45.0 45.0)
  end
  begin
     id 22 
     name lfingers
     direction 1 -4.4904e-011 1.26008e-025   
     length 0.520512   
     axis -8.04039e-014 90 90   XYZ
    dof rx
    limits (0.0 90.0)
  end
  begin
     id 23
     name lthumb
     direction 0.707107 -6.34947e-011 0.707107   
     length 0.747354   
     axis -90 45 2.85299e-015   XYZ
    dof rx rz
    limits (-45.0 45.0)
           (-45.0 45.0)
  end
  begin
     id 24 
     name rclavicle
     direction -0.909391 0.383475 -0.161107   
     length 3.25176  
     axis 0 0 0   XYZ 
    dof ry rz
    limits (-10.0 20.0)
           (-20.0 0.0)
  end
  begin
     id 25 
     name rhumerus
     direction -1 -4.48965e-011 -1.81384e-027  
     length 5.6595   
     axis 180 30 90   XYZ
    dof rx ry rz
    limits (-90.0 60.0)
           (-90.0 90.0)
           (-90.0 90.0)
  end
  begin
     id 26 
     name rradius
     direction -1 -4.48996e-011 -8.09397e-027   
     length 3.37604   
     axis 180 30 90   XYZ
    dof rx
    limits (-10.0 170.0)
  end
  begin
     id 27 
     name rwrist
     direction -1 -4.48927e-011 -1.56669e-026   
     length 1.68802   
     axis 1.21142e-014 -90 -90   XYZ
    dof ry
    limits (-180.0 0.0)
  end
  begin
     id 28
     name rhand
     direction -1 -4.48912e-011 -3.13339e-026   
     length 0.824702   
     axis 1.99937e-014 -90 -90   XYZ
    dof rx rz
    limits (-90.0 90.0)
           (-45.0 45.0)
  end
  begin
     id 29
     name rfingers
     direction -1 -4.49011e-011 -6.26677e-026   
     length 0.664896   
     axis 3.99874e-014 -90 -90   XYZ
    dof rx
    limits (0.0 90.0)
  end
  begin
     id 30
     name rthumb
     direction -0.707107 -6.34931e-011 0.707107   
     length 0.954662   
     axis -90 -45 -2.85299e-015   XYZ
    dof rx rz
    limits (-45.0 45.0)
           (-45.0 45.0)
  end
:hierarchy
  begin
    root lhipjoint rhipjoint lowerback
    lhipjoint lfemur
    lfemur ltibia
    ltibia lfoot
    lfoot ltoes
    rhipjoint rfemur
    rfemur rtibia
    rtibia rfoot
    rfoot rtoes
    lowerback upperback
    upperback thorax
    thorax lowerneck lclavicle rclavicle
    lowerneck upperneck
    upperneck head
    lclavicle lhumerus
    lhumerus lradius
    lradius lwrist
    lwrist lhand lthumb
    lhand lfingers
    rclavicle rhumerus
    rhumerus rradius
    rradius rwrist
    rwrist rhand rthumb
    rhand rfingers
  end

#!OML:ASF F:\VICON\USERDATA\INSTALL\rory3\rory3.ASF
:FULLY-SPECIFIED
:DEGREES
144
root 14.1147 17.7358 -41.685 7.43479 -39.0807 0.277716
lowerback 7.63162 -1.05235 -8.35434
upperback -0.0339354 -2.01243 3.3421
thorax -3.92218 -0.809729 8.48979
lowerneck -13.4144 -0.873371 -13.1082
upperneck 21.0499 0.236483 6.43514
head 8.76978 -0.296488 4.41618
rclavicle 2.56432e-014 -3.85642e-014
rhumerus -39.5488 -17.8686 -66.4531
rradius 32.9756
rwrist -15.8647
rhand -11.1701 16.6342
rfingers 7.12502
rthumb 14.8567 -12.8131
lclavicle 2.56432e-014 -3.85642e-014
lhumerus -30.0945 21.3592 74.8015
lradius 33.4381
lwrist -6.97537
lhand -2.96165 33.0298
lfingers 7.12502
lthumb 22.7508 61.7084
rfemur -26.4332 10.113 5.98932
rtibia 49.1931
rfoot -16.0211 3.76728
rtoes 7.92118
lfemur -18.6519 6.42993 -27.7257
ltibia 39.7115
lfoot -24.4022 13.9746
ltoes 4.32548
145
root 14.1139 17.7401 -41.6583 7.61179 -39.7024 0.0077214
lowerback 7.48411 -0.982351 -8.22086
upperback 0.0585301 -1.8963 3.28174
thorax -3.77126 -0.766664 8.32648
lowerneck -13.3832 -0.942645 -12.9499
upperneck 20.8495 0.106067 6.42456
head 8.70901 -0.33979 4.36605
rclavicle 2.6339e-014 1.59028e-014
rhumerus -39.4396 -17.9463 -66.6701
rradius 33.1333
rwrist -15.9317
rhand -11.1526 16.4967
rfingers 7.12502
rthumb 14.8735 -12.9494
lclavicle 2.6339e-014 1.59028e-014
lhumerus -29.9854 21.5783 74.9049
lradius 33.3106
lwrist -7.7326
lhand -7.90814 29.1891
lfingers 7.12502
lthumb 17.9972 58.3764
rfemur -26.6962 10.5153 6.22937
rtibia 49.354
rfoot -15.8999 3.30772
rtoes 10.1689
lfemur -18.675 7.0036 -27.5905
ltibia 39.7742
lfoot -24.2103 14.0672
ltoes 3.70575
146
root 14.1164 17.7508 -41.6335 7.78351 -40.0963 -0.246208
lowerback 6.85872 -1.03475 -7.47728
upperback 0.510633 -1.86809 2.7535
thorax -2.98925 -0.823382 7.28607
lowerneck -13.6827 -0.98553 -12.225
upperneck 20.5325 -0.100076 6.56856
head 8.6715 -0.349646 4.26748
rclavicle 1.1783e-013 -2.56432e-014
rhumerus -39.0167 -19.039 -67.4885
rradius 33.1945
rwrist -15.5818
rhand -11.0273 16.5917
rfingers 7.12502
rthumb 14.9942 -12.8454
lclavicle 1.1783e-013 -2.56432e-014
lhumerus -29.0239 20.9086 74.8777
lradius 32.7282
lwrist -6.33962
lhand -4.48701 32.4782
lfingers 7.12502
lthumb 21.2862 61.3293
rfemur -26.8869 10.4532 6.57734
rtibia 49.3184
rfoot -15.4029 2.50099
rtoes 2.74276
lfemur -18.6406 7.38136 -27.4468
ltibia 39.7641
lfoot -24.6729 14.5153
ltoes 1.93127
147
root 14.1194 17.7532 -41.6189 7.91766 -40.2273 -0.33693
lowerback 7.12648 -1.1583 -7.68779
upperback 0.292726 -2.06702 2.93856
thorax -3.31856 -0.89522 7.63945
lowerneck -13.4064 -0.907033 -12.4214
upperneck 20.4193 0.0417912 6.45648
head 8.56971 -0.310715 4.27062
rclavicle 3.84151e-014 -1.2921e-014
rhumerus -39.1402 -18.8393 -67.2182
rradius 33.2438
rwrist -15.1879
rhand -10.9328 16.7888
rfingers 7.12502
rthumb 15.0852 -12.6416
lclavicle 3.84151e-014 -1.2921e-014
lhumerus -29.514 21.4885 74.9721
lradius 32.9239
lwrist -7.36908
lhand -8.75652 27.7774
lfingers 7.12502
lthumb 17.1808 57.0378
rfemur -26.9164 10.9408 6.39127
rtibia 49.4223
rfoot -15.0198 3.4334
rtoes 19.0409
lfemur -18.6981 7.4292 -27.4213
ltibia 39.8018
lfoot -24.6589 13.7578
ltoes 4.98416
148
root 14.0936 17.7085 -41.4434 7.20403 -43.4176 -0.982045
lowerback 6.30336 -0.359776 -6.91898
upperback 0.935481 -0.881192 2.90875
thorax -2.41661 -0.377049 7.02659
lowerneck -12.786 -0.935184 -13.0299
upperneck 19.9477 0.0287835 6.60286
head 8.30031 -0.342114 4.40261
rclavicle -1.12612e-013 4.37326e-015
rhumerus -39.0116 -18.9489 -66.667
rradius 32.9036
rwrist -14.4415
rhand -10.7978 17.082
rfingers 7.12502
rthumb 15.2153 -12.3385
lclavicle -1.12612e-013 4.37326e-015
lhumerus -29.854 22.094 75.2774
lradius 32.8042
lwrist -7.50194
lhand -3.66057 32.0603
lfingers 7.12502
lthumb 22.0799 60.8197
rfemur -26.1541 12.7899 6.43852
rtibia 49.3592
rfoot -15.0124 4.16681
rtoes 16.2913
lfemur -16.8814 6.57534 -27.8287
ltibia 39.769
lfoot -26.3878 18.0874
ltoes 4.17896
149
root 14.1248 17.7606 -41.5956 7.94104 -40.5532 -0.42787
lowerback 7.74222 -1.23566 -8.14796
upperback 0.0432836 -2.25095 3.21788
thorax -3.86554 -0.939967 8.25952
lowerneck -12.3305 -0.964512 -13.2813
upperneck 19.4952 -0.0479767 6.76702
head 8.07386 -0.372396 4.477
rclavicle -4.93483e-014 3.57812e-014
rhumerus -39.3904 -17.5303 -67.3195
rradius 34.0732
rwrist -15.7653
rhand -11.0877 16.5848
rfingers 7.12502
rthumb 14.936 -12.8567
lclavicle -4.93483e-014 3.57812e-014
lhumerus -29.7899 21.5645 75.9031
lradius 32.1579
lwrist -5.32514
lhand -7.4627 29.4921
lfingers 7.12502
lthumb 18.4258 58.6394
rfemur -26.9894 11.1483 6.5492
rtibia 49.6713
rfoot -14.7923 3.30478
rtoes 20.0675
lfemur -18.5746 7.36268 -27.4058
ltibia 39.7883
lfoot -24.4666 15.0449
ltoes 0.966717
150
root 14.1264 17.7626 -41.5578 7.97463 -41.0747 -0.381816
lowerback 7.48017 -1.09074 -8.05454
upperback 0.194194 -2.03403 2.9959
thorax -3.6133 -0.853842 7.92843
lowerneck -12.5738 -1.17888 -13.0178
upperneck 19.436 -0.372853 6.81949
head 8.13181 -0.495777 4.41909
rclavicle 4.38817e-014 -2.36554e-014
rhumerus -39.2531 -17.8417 -67.6011
rradius 34.3088
rwrist -15.9026
rhand -11.0752 16.7044
rfingers 7.12502
rthumb 14.9481 -12.7362
lclavicle 4.38817e-014 -2.36554e-014
lhumerus -29.368 21.2346 76.2779
lradius 31.7692
lwrist -5.9498
lhand -7.98347 28.6593
lfingers 7.12502
lthumb 17.9247 57.8533
rfemur -27.2817 10.6023 6.72506
rtibia 49.8234
rfoot -14.6937 2.26109
rtoes 12.737
lfemur -18.5454 7.33253 -27.6436
ltibia 39.8008
lfoot -24.2823 14.7195
ltoes 1.29364
151
root 14.128 17.7645 -41.5354 7.94364 -41.3579 -0.331904
lowerback 7.54908 -1.09384 -8.10656
upperback 0.232232 -2.05035 2.90736
thorax -3.61022 -0.863208 7.86617
lowerneck -13.3576 -1.26223 -12.6578
upperneck 19.66 -0.453289 6.78628
head 8.35586 -0.505073 4.3514
rclavicle -6.07784e-014 8.34896e-015
rhumerus -39.1942 -16.6845 -68.3732
rradius 35.0653
rwrist -17.3771
rhand -11.2006 16.4624
rfingers 7.12502
rthumb 14.8272 -12.9871
lclavicle -6.07784e-014 8.34896e-015
lhumerus -29.2693 21.882 76.1206
lradius 31.8173
lwrist -8.83985
lhand -4.53716 30.0583
lfingers 7.12502
lthumb 21.2381 58.9148
rfemur -27.3917 10.8421 6.59703
rtibia 50.0063
rfoot -14.5855 2.24962
rtoes 19.0882
lfemur -18.4716 7.56971 -27.7632
ltibia 39.7958
lfoot -24.2138 15.6484
ltoes -2.57229
152
root 14.1296 17.7698 -41.523 8.17194 -41.4725 -0.592452
lowerback 7.79664 -1.43117 -8.36454
upperback -0.0960227 -2.53532 3.31311
thorax -3.97322 -1.06563 8.52276
lowerneck -11.8366 -0.927252 -13.9795
upperneck 19.1636 -0.0248449 7.2709
head 7.86963 -0.361568 4.75515
rclavicle 4.05024e-014 2.22639e-014
rhumerus -38.9999 -16.2601 -67.9456
rradius 34.6351
rwrist -16.5297
rhand -10.7139 16.8986
rfingers 7.12502
rthumb 15.2961 -12.5157
lclavicle 4.05024e-014 2.22639e-014
lhumerus -30.1599 22.3402 76.4201
lradius 31.5758
lwrist -6.94785
lhand -6.72702 29.2554
lfingers 7.12502
lthumb 19.1333 58.3343
rfemur -27.4434 10.7146 6.98339
rtibia 49.9975
rfoot -14.5449 1.30683
rtoes 15.1733
lfemur -18.5443 7.67037 -27.5433
ltibia 39.8471
lfoot -24.3681 15.5767
ltoes -1.1849
153
root 14.1064 17.7493 -41.3803 7.44687 -43.9071 -1.15285
lowerback 6.97166 -0.749961 -7.1298
upperback 0.695877 -1.46941 2.70151
thorax -2.94031 -0.638221 6.99665
lowerneck -11.5953 -0.997856 -13.4619
upperneck 18.7604 -0.307104 7.55543
head 7.7183 -0.422543 4.7266
rclavicle -3.26504e-014 1.31198e-014
rhumerus -38.6926 -18.7792 -67.5821
rradius 33.6445
rwrist -14.4583
rhand -10.4678 17.5214
rfingers 7.12502
rthumb 15.5332 -11.8748
lclavicle -3.26504e-014 1.31198e-014
lhumerus -29.8513 22.2385 76.0633
lradius 31.5713
lwrist -9.02395
lhand -3.79582 30.9578
lfingers 7.12502
lthumb 21.95 59.7325
rfemur -26.5068 12.3239 6.9976
rtibia 49.9071
rfoot -14.7803 2.27379
rtoes 14.6578
lfemur -16.8926 6.94374 -27.7956
ltibia 39.8469
lfoot -25.8155 18.0651
ltoes 2.82578
154
root 14.1102 17.7545 -41.3879 7.65191 -43.6384 -1.12525
lowerback 7.05774 -0.921166 -7.22754
upperback 0.552871 -1.71466 2.64709
thorax -3.0948 -0.747516 7.02169
lowerneck -11.4103 -0.990327 -13.3076
upperneck 18.6448 -0.365504 7.62654
head 7.6516 -0.432965 4.7149
rclavicle -1.47101e-014 -6.26172e-015
rhumerus -38.578 -19.0388 -67.6999
rradius 33.5284
rwrist -14.272
rhand -10.7959 17.6827
rfingers 7.12502
rthumb 15.2171 -11.7376
lclavicle -1.47101e-014 -6.26172e-015
lhumerus -29.8501 22.1256 76.2373
lradius 31.4535
lwrist -8.74038
lhand -4.15101 31.0836
lfingers 7.12502
lthumb 21.6089 59.8979
rfemur -26.6673 11.7919 7.11821
rtibia 49.9846
rfoot -14.9488 2.33085
rtoes 13.961
lfemur -17.151 7.36522 -27.7309
ltibia 39.8792
lfoot -25.4311 17.1605
ltoes 3.2987
